HIERARCHY
ROOT Hips
{
 OFFSET 0.000000 0.000000 0.000000
 CHANNELS 6 Xposition Yposition Zposition Yrotation Xrotation Zrotation
 JOINT Chest
 {
  OFFSET 0.000000 9.585900 0.002600
  CHANNELS 3 Yrotation Xrotation Zrotation
  JOINT Chest2
  {
   OFFSET 0.000000 9.601200 -0.005300
   CHANNELS 3 Yrotation Xrotation Zrotation
   JOINT Chest3
   {
    OFFSET 0.000000 9.561800 0.000000
    CHANNELS 3 Yrotation Xrotation Zrotation
    JOINT Chest4
    {
     OFFSET 0.000000 9.552100 0.000000
     CHANNELS 3 Yrotation Xrotation Zrotation
     JOINT Neck
     {
      OFFSET 0.000000 14.453000 0.000000
      CHANNELS 3 Yrotation Xrotation Zrotation
      JOINT Head
      {
       OFFSET 0.000000 8.936500 -0.011300
       CHANNELS 3 Yrotation Xrotation Zrotation
       End Site
       {
        OFFSET 0.000000 17.073600 -0.006000
       }
      }
     }
     JOINT RightCollar
     {
      OFFSET -2.921100 9.558500 0.000000
      CHANNELS 3 Yrotation Xrotation Zrotation
      JOINT RightShoulder
      {
       OFFSET -13.519700 0.000000 0.000000
       CHANNELS 3 Yrotation Xrotation Zrotation
       JOINT RightElbow
       {
        OFFSET 0.000000 -29.696600 0.000000
        CHANNELS 3 Yrotation Xrotation Zrotation
        JOINT RightWrist
        {
         OFFSET 0.000000 -24.004700 0.000000
         CHANNELS 3 Yrotation Xrotation Zrotation
         End Site
         {
          OFFSET 0.000000 -17.728500 0.000000
         }
        }
       }
      }
     }
     JOINT LeftCollar
     {
      OFFSET 2.921100 9.558500 0.000000
      CHANNELS 3 Yrotation Xrotation Zrotation
      JOINT LeftShoulder
      {
       OFFSET 13.519700 0.000000 0.000000
       CHANNELS 3 Yrotation Xrotation Zrotation
       JOINT LeftElbow
       {
        OFFSET 0.000000 -29.696600 0.000000
        CHANNELS 3 Yrotation Xrotation Zrotation
        JOINT LeftWrist
        {
         OFFSET 0.000000 -24.004700 0.000000
         CHANNELS 3 Yrotation Xrotation Zrotation
         End Site
         {
          OFFSET 0.000000 -17.728500 0.000000
         }
        }
       }
      }
     }
    }
   }
  }
 }
 JOINT RightHip
 {
  OFFSET -7.771700 -0.012900 -0.001300
  CHANNELS 3 Yrotation Xrotation Zrotation
  JOINT RightKnee
  {
   OFFSET 0.000000 -40.869800 0.001200
   CHANNELS 3 Yrotation Xrotation Zrotation
   JOINT RightAnkle
   {
    OFFSET 0.000000 -39.717900 0.002100
    CHANNELS 3 Yrotation Xrotation Zrotation
    JOINT RightToe
    {
     OFFSET 0.000000 -4.965400 11.033500
     CHANNELS 3 Yrotation Xrotation Zrotation
     End Site
     {
      OFFSET 0.000000 -1.423100 5.872300
     }
    }
   }
  }
 }
 JOINT LeftHip
 {
  OFFSET 7.771700 -0.012900 -0.001300
  CHANNELS 3 Yrotation Xrotation Zrotation
  JOINT LeftKnee
  {
   OFFSET 0.000000 -40.869800 0.001200
   CHANNELS 3 Yrotation Xrotation Zrotation
   JOINT LeftAnkle
   {
    OFFSET 0.000000 -39.717900 0.002100
    CHANNELS 3 Yrotation Xrotation Zrotation
    JOINT LeftToe
    {
     OFFSET 0.000000 -4.965400 11.033500
     CHANNELS 3 Yrotation Xrotation Zrotation
     End Site
     {
      OFFSET 0.000000 -1.423100 5.872300
     }
    }
   }
  }
 }
}
MOTION
Frames: 16
Frame Time: 0.008333
0.000000 85.388000 0.000000 0.000000 -5.767877 0.000000 0.000000 11.653817 0.000000 0.000000 -5.885947 0.000000 0.000000 -0.000000 0.000000 0.000000 -0.000000 0.000000 0.000000 12.528835 0.000000 0.000000 0.711642 0.000000 0.000000 -0.000000 0.000000 0.000000 0.000000 -90.000000 0.000000 -2.309062 0.000000 0.000000 2.309062 0.000000 0.000000 -0.000000 0.000000 0.000000 -0.000000 90.000000 0.000000 -2.309062 0.000000 0.000000 2.309062 0.000000 0.000000 8.520406 0.000000 0.000000 1.905762 0.000000 -0.000000 -4.658285 0.000000 0.000000 -0.000000 0.000000 0.000000 8.520406 0.000000 0.000000 1.905762 0.000000 -0.000000 -4.658285 0.000000 0.000000 -0.000000 0.000000
-125.719576 58.077294 103.214246 178.543345 -24.760813 -0.393501 3.485279 20.574128 2.999925 0.363617 2.679036 0.304542 0.612615 4.368030 0.504325 2.696038 17.611476 2.395241 -1.489398 9.243897 -0.677807 -2.584537 -18.634390 -0.607221 0.342365 0.831174 0.178674 -1.626114 -12.040317 -8.662038 -74.695702 -23.579159 111.049375 -21.317399 -6.994755 -21.809763 -3.430588 0.356156 -0.877945 12.169611 -6.292792 -10.286144 55.277107 -20.665851 -97.077560 16.938938 -1.987432 -16.561343 4.125589 -50.711737 -3.382961 -14.437085 68.806414 -19.834529 8.742448 22.467160 7.194593 -0.492596 -17.187519 2.818674 -6.374932 -47.914986 -3.057510 23.081791 66.636192 23.290604 -20.323726 2.011004 -3.711414 -0.004829 0.026541 -0.025848
-125.720369 58.075923 103.218615 178.517057 -24.734673 -0.378156 3.498340 20.557335 2.992933 0.366750 2.675235 0.303436 0.596496 4.383773 0.508516 2.708737 17.597064 2.388018 -1.484791 9.239599 -0.673503 -2.551389 -18.665593 -0.625499 0.332870 0.840079 0.176368 -1.616017 -12.046542 -8.656923 -74.628908 -23.572686 110.953024 -21.303872 -6.980955 -21.775733 -3.429919 0.358185 -0.876693 12.142758 -6.291381 -10.296338 55.164468 -20.894304 -96.772396 16.776515 -1.769118 -16.899992 4.147786 -50.741059 -3.391887 -14.516167 68.780799 -19.909483 8.777016 22.494268 7.238676 -0.482391 -17.196843 2.773187 -6.343092 -47.934346 -3.085682 23.084224 66.623122 23.313143 -20.282339 2.014238 -3.710788 -0.032313 0.029394 -0.032081
-125.719988 58.075813 103.220010 178.509100 -24.726661 -0.378162 3.499879 20.557420 2.995668 0.359619 2.684271 0.305407 0.595558 4.385572 0.508253 2.704225 17.600447 2.386097 -1.458544 9.219226 -0.673897 -2.549489 -18.676754 -0.637170 0.337927 0.833238 0.167707 -1.627556 -12.020971 -8.636393 -74.600558 -23.598624 110.945063 -21.290897 -6.958079 -21.760568 -3.414191 0.338557 -0.884557 12.111914 -6.302355 -10.306049 55.058075 -21.144079 -96.453483 16.604169 -1.548172 -17.267132 4.149043 -50.750624 -3.389651 -14.549365 68.771529 -19.941711 8.776477 22.505005 7.327928 -0.440279 -17.200560 2.675681 -6.337465 -47.939727 -3.089922 23.063392 66.619993 23.314897 -20.305622 2.021285 -3.713818 -0.005489 0.021816 -0.043391
-125.721219 58.075155 103.221988 178.503022 -24.711806 -0.370536 3.487208 20.575740 2.993948 0.362514 2.669038 0.299415 0.593417 4.402380 0.516226 2.703293 17.585465 2.377873 -1.436828 9.206178 -0.681793 -2.524143 -18.714442 -0.653097 0.341946 0.828562 0.159001 -1.641043 -11.997144 -8.621184 -74.557825 -23.657679 110.890560 -21.260023 -6.937753 -21.702842 -3.399478 0.322906 -0.890123 12.072760 -6.329548 -10.324029 54.959378 -21.393966 -96.118101 16.437967 -1.331339 -17.630539 4.158836 -50.769044 -3.403155 -14.562926 68.769724 -19.953841 8.780481 22.508346 7.366579 -0.424646 -17.199883 2.633094 -6.307104 -47.951975 -3.121181 23.061589 66.613390 23.337380 -20.304526 2.023917 -3.717306 -0.040141 0.035188 -0.033592
-125.723719 58.074683 103.222699 178.503740 -24.701142 -0.358751 3.480812 20.577417 2.985045 0.360080 2.673682 0.300611 0.596080 4.394293 0.513663 2.702966 17.594671 2.384999 -1.421601 9.196968 -0.691841 -2.461945 -18.743768 -0.695090 0.338485 0.818949 0.153753 -1.673049 -11.952587 -8.609256 -74.530868 -23.754224 110.877895 -21.213520 -6.914687 -21.678914 -3.384559 0.294562 -0.875828 11.968911 -6.397496 -10.391025 54.906466 -21.627872 -95.715619 16.285611 -1.127475 -17.957153 4.172752 -50.782025 -3.430473 -14.552519 68.772169 -19.941783 8.780110 22.509832 7.393839 -0.426157 -17.198981 2.606647 -6.259861 -47.959311 -3.179437 23.072651 66.598268 23.385529 -20.316042 2.034639 -3.716811 -0.042233 0.032717 -0.038817
-125.725418 58.074500 103.221755 178.500872 -24.696518 -0.350269 3.484217 20.587512 2.984711 0.356883 2.674377 0.301899 0.596102 4.386853 0.510088 2.707260 17.601758 2.393582 -1.419290 9.186832 -0.703433 -2.430636 -18.746809 -0.718908 0.332861 0.804071 0.150479 -1.692169 -11.926921 -8.619904 -74.525529 -23.850704 110.872465 -21.175454 -6.907748 -21.694702 -3.383302 0.273403 -0.875134 11.900528 -6.443515 -10.425165 54.832120 -21.814852 -95.347766 16.160029 -0.947770 -18.218289 4.184961 -50.788142 -3.453272 -14.545709 68.771824 -19.925846 8.785703 22.514678 7.397253 -0.430228 -17.200094 2.598946 -6.194250 -47.956347 -3.246453 23.101984 66.578948 23.465765 -20.336655 2.031833 -3.721543 -0.029875 0.038226 -0.040542
-125.727143 58.073577 103.221096 178.496576 -24.683925 -0.340879 3.491664 20.592866 2.986616 0.355132 2.671586 0.298992 0.597596 4.387329 0.510840 2.713083 17.602128 2.397374 -1.422155 9.176509 -0.710894 -2.421259 -18.749928 -0.728672 0.323442 0.781536 0.151490 -1.701570 -11.910980 -8.637793 -74.533331 -23.959519 110.857425 -21.144991 -6.905440 -21.729561 -3.385385 0.249588 -0.867919 11.834793 -6.477327 -10.455435 54.747634 -21.944472 -94.993845 16.072274 -0.801532 -18.398192 4.197755 -50.802566 -3.478031 -14.528730 68.772204 -19.895545 8.782592 22.520933 7.406869 -0.417425 -17.201454 2.574439 -6.014102 -47.952066 -3.410255 23.104822 66.540547 23.605657 -20.360878 2.022820 -3.735205 -0.007959 0.051900 -0.043217
-125.725006 58.072998 103.218394 178.477983 -24.678453 -0.347797 3.516985 20.593407 3.006799 0.360148 2.678936 0.303759 0.600583 4.388735 0.511602 2.725282 17.603485 2.401023 -1.397389 9.186793 -0.719900 -2.454325 -18.773486 -0.727349 0.304972 0.754663 0.153086 -1.708482 -11.899569 -8.654689 -74.543492 -24.066807 110.837282 -21.124595 -6.907732 -21.771744 -3.400374 0.222231 -0.861499 11.806176 -6.481080 -10.470463 54.623772 -22.003188 -94.669995 16.026790 -0.693718 -18.494095 4.195939 -50.814807 -3.466233 -14.497376 68.778916 -19.847356 8.761462 22.534441 7.410260 -0.414920 -17.208030 2.553141 -5.910152 -47.946766 -3.486176 23.290401 66.500768 23.874764 -20.411046 2.010728 -3.752842 -0.021147 0.057016 -0.039079
-125.723451 58.072212 103.214420 178.458882 -24.673217 -0.350311 3.541006 20.594800 3.022219 0.364445 2.687783 0.308047 0.603494 4.390937 0.512681 2.758744 17.618295 2.414083 -1.434259 9.156370 -0.728021 -2.418431 -18.766410 -0.751217 0.268421 0.710360 0.150962 -1.713839 -11.890056 -8.665147 -74.543202 -24.158726 110.812176 -21.116979 -6.916067 -21.806830 -3.442137 0.183130 -0.866148 11.651861 -6.574674 -10.516717 54.602506 -21.997862 -94.260616 16.026541 -0.623289 -18.510646 4.182315 -50.826623 -3.451628 -14.463384 68.782470 -19.801625 8.743638 22.555957 7.421340 -0.391648 -17.221257 2.514608 -5.793517 -47.942521 -3.573574 23.452495 66.464991 24.127496 -20.485070 1.994175 -3.769706 -0.009073 0.065142 -0.037477
-125.721694 58.070480 103.210711 178.446275 -24.657522 -0.356382 3.561751 20.588872 3.038499 0.368149 2.699289 0.311535 0.604782 4.381298 0.510324 2.760880 17.614339 2.414750 -1.419860 9.160183 -0.734393 -2.406593 -18.769015 -0.766214 0.259342 0.690986 0.155051 -1.708940 -11.894350 -8.692552 -74.539752 -24.175995 110.788022 -21.098656 -6.908586 -21.842974 -3.455035 0.169634 -0.866999 11.544574 -6.627157 -10.552325 54.533342 -21.928699 -93.894925 16.069799 -0.585961 -18.456132 4.157241 -50.851330 -3.438598 -14.514083 68.780292 -19.822641 8.755129 22.570418 7.379574 -0.380916 -17.228342 2.515263 -5.739313 -47.953882 -3.608848 23.529518 66.451141 24.248784 -20.481494 1.998818 -3.767423 -0.040276 0.057670 -0.042710
-125.722594 58.068337 103.205853 178.435130 -24.639718 -0.346719 3.571912 20.582567 3.036601 0.366539 2.693052 0.308815 0.609887 4.393947 0.513454 2.757823 17.599408 2.411213 -1.389694 9.167144 -0.750306 -2.407275 -18.775488 -0.772474 0.256306 0.677561 0.158293 -1.680217 -11.930673 -8.737198 -74.535497 -24.161854 110.729427 -21.104780 -6.896977 -21.867772 -3.466919 0.153064 -0.865150 11.471298 -6.645772 -10.587140 54.437311 -21.809009 -93.564977 16.148729 -0.572240 -18.347145 4.150002 -50.877360 -3.446993 -14.536982 68.783237 -19.838753 8.774628 22.578922 7.371641 -0.383279 -17.235008 2.508099 -5.668174 -47.968989 -3.667626 23.609434 66.437450 24.373987 -20.504592 1.991885 -3.772269 -0.011967 0.065181 -0.038457
-125.722220 58.066470 103.198531 178.397014 -24.629271 -0.332794 3.603811 20.581103 3.037803 0.368936 2.688394 0.308188 0.610935 4.391595 0.513102 2.767070 17.604476 2.411076 -1.391728 9.159733 -0.751429 -2.381134 -18.780822 -0.796594 0.244593 0.657149 0.164801 -1.654555 -11.959259 -8.770443 -74.510000 -24.165707 110.652054 -21.132722 -6.899122 -21.872175 -3.490107 0.134483 -0.867298 11.407482 -6.658917 -10.622970 54.341604 -21.659523 -93.255392 16.248166 -0.570668 -18.201798 4.151823 -50.896257 -3.439932 -14.564324 68.783350 -19.862356 8.792448 22.595357 7.390117 -0.371117 -17.247954 2.471403 -5.518170 -47.971050 -3.773292 23.787849 66.406224 24.643514 -20.570323 1.965145 -3.786597 0.024746 0.075969 -0.035229
-125.719711 58.065701 103.186961 178.353387 -24.638169 -0.328333 3.637759 20.594696 3.051455 0.369932 2.687405 0.307735 0.612449 4.390297 0.512414 2.768886 17.599090 2.407002 -1.381791 9.161116 -0.754829 -2.318921 -18.805128 -0.841193 0.242103 0.642981 0.170235 -1.636890 -11.960996 -8.788189 -74.486434 -24.157090 110.602011 -21.134788 -6.894211 -21.894124 -3.504749 0.125344 -0.874230 11.354097 -6.664990 -10.662042 54.249942 -21.495844 -92.963241 16.354397 -0.576089 -18.027711 4.104614 -50.901259 -3.393226 -14.552040 68.792200 -19.864389 8.828604 22.610313 7.399713 -0.384907 -17.264662 2.448251 -5.284858 -47.951619 -3.944734 24.081793 66.365902 25.093646 -20.641981 1.912469 -3.813745 -0.024560 0.086277 -0.028524
-125.712490 58.064969 103.173662 178.264113 -24.651122 -0.332311 3.718073 20.606208 3.088819 0.371220 2.686996 0.307543 0.614766 4.389462 0.512064 2.770462 17.595110 2.402602 -1.363649 9.158411 -0.758622 -2.300784 -18.815526 -0.852543 0.247556 0.638458 0.175211 -1.622006 -11.971921 -8.802707 -74.456151 -24.158055 110.552389 -21.137182 -6.903360 -21.926847 -3.516901 0.119539 -0.875999 11.341977 -6.661987 -10.681384 54.137426 -21.314506 -92.703947 16.464207 -0.583923 -17.825216 4.102431 -50.899950 -3.317133 -14.575122 68.797265 -19.888612 8.861969 22.636352 7.414227 -0.400920 -17.293557 2.428786 -5.158664 -47.932662 -3.964111 24.296565 66.353688 25.378151 -20.717677 1.841734 -3.830154 -0.027954 0.120198 -0.022902
-125.711372 58.063337 103.160343 178.230202 -24.654745 -0.322447 3.731521 20.610093 3.083071 0.372105 2.686241 0.307043 0.616121 4.388392 0.511104 2.772107 17.592438 2.399356 -1.350920 9.143299 -0.766276 -2.288594 -18.804413 -0.851367 0.257205 0.634846 0.180776 -1.602830 -12.013969 -8.826356 -74.415419 -24.165470 110.456867 -21.155366 -6.915719 -21.948256 -3.524867 0.116981 -0.871796 11.294464 -6.662371 -10.735743 54.067958 -21.190850 -92.436170 16.575879 -0.591236 -17.588643 4.097335 -50.905031 -3.302692 -14.547621 68.808364 -19.870554 8.876498 22.652482 7.433835 -0.405522 -17.312996 2.406677 -4.986141 -47.925436 -4.079902 24.418513 66.350543 25.608605 -20.796165 1.799359 -3.835525 -0.013761 0.127357 -0.025137
